<svg xmlns="http://www.w3.org/2000/svg" viewBox="0 0 640 420"><defs><linearGradient id="bg" x1="0" x2="1" y1="0" y2="1"><stop offset="0" stop-color="#101032"/><stop offset=".5" stop-color="#5c1a65"/><stop offset="1" stop-color="#ff4f87"/></linearGradient><radialGradient id="glow" cx="66%" cy="22%" r="55%"><stop offset="0" stop-color="#8ff7ff"/><stop offset="1" stop-color="#8ff7ff" stop-opacity="0"/></radialGradient></defs><rect width="640" height="420" fill="url(#bg)"/><rect width="640" height="420" fill="url(#glow)"/><path d="M0 318h640v102H0z" fill="#130616" opacity=".72"/><path d="M18 338h604M80 362h92M240 362h126M450 362h104" stroke="#ffdf70" stroke-width="5" opacity=".48"/><path d="M430 76l13 27 30 4-22 20 6 30-27-15-27 15 6-30-22-20 30-4z" fill="#fff6b8"/><path d="M294 96c58 0 98 42 98 106v92H196v-92c0-64 40-106 98-106z" fill="#231024"/><path d="M202 190c28-72 94-102 176-74 26 31 34 71 30 116-36-42-81-62-135-62-30 0-53 7-71 20z" fill="#111526"/><ellipse cx="294" cy="214" rx="80" ry="88" fill="#ffd3c5"/><path d="M214 180c34-62 100-92 178-52-8 43-28 71-66 88-18-28-50-45-112-36z" fill="#202849"/><path d="M246 222c15-15 39-15 54 0M315 222c16-15 40-15 55 0" stroke="#22111b" stroke-width="8" stroke-linecap="round"/><circle cx="276" cy="236" r="13" fill="#6ee7ff"/><circle cx="342" cy="236" r="13" fill="#6ee7ff"/><path d="M274 282c21 14 44 14 65 0" stroke="#a92d4b" stroke-width="8" stroke-linecap="round"/></svg>
