<svg xmlns="http://www.w3.org/2000/svg" viewBox="0 0 640 420"><defs><linearGradient id="bg" x1="0" x2="1" y1="0" y2="1"><stop offset="0" stop-color="#30241f"/><stop offset=".58" stop-color="#7e5746"/><stop offset="1" stop-color="#d9b79c"/></linearGradient><radialGradient id="light" cx="35%" cy="18%" r="58%"><stop offset="0" stop-color="#fff0d6"/><stop offset="1" stop-color="#fff0d6" stop-opacity="0"/></radialGradient></defs><rect width="640" height="420" fill="url(#bg)"/><rect width="640" height="420" fill="url(#light)" opacity=".65"/><rect x="92" y="44" width="456" height="332" rx="10" fill="#211915" stroke="#e6c3a5" stroke-width="10"/><rect x="118" y="70" width="404" height="280" rx="6" fill="#51392f"/><ellipse cx="320" cy="190" rx="88" ry="104" fill="#c99475"/><path d="M238 168c16-70 54-105 114-105 46 0 82 30 108 91-51-28-97-34-138-18-32-6-60 4-84 32z" fill="#2c1e1d"/><path d="M266 195c20-13 41-13 62 0M344 195c20-13 41-13 62 0" stroke="#2a1b18" stroke-width="8" stroke-linecap="round"/><path d="M314 206c-11 31-7 50 13 58" stroke="#6e4032" stroke-width="7" stroke-linecap="round"/><path d="M283 292c27 19 58 19 91 0" stroke="#6e2a2f" stroke-width="8" stroke-linecap="round"/><path d="M214 350c25-65 60-97 106-97s81 32 106 97" fill="#22212a"/></svg>
