<svg xmlns="http://www.w3.org/2000/svg" viewBox="0 0 640 420"><defs><linearGradient id="bg" x1="0" x2="0" y1="0" y2="1"><stop offset="0" stop-color="#07060a"/><stop offset=".62" stop-color="#251015"/><stop offset="1" stop-color="#080303"/></linearGradient><radialGradient id="moon" cx="73%" cy="22%" r="25%"><stop offset="0" stop-color="#f0ead5"/><stop offset=".42" stop-color="#d4cbb8"/><stop offset="1" stop-color="#d4cbb8" stop-opacity="0"/></radialGradient></defs><rect width="640" height="420" fill="url(#bg)"/><rect width="640" height="420" fill="url(#moon)" opacity=".78"/><path d="M0 310c92-35 167-27 238-5 81 24 154 15 238-12 68-22 121-26 164-11v138H0z" fill="#090807"/><path d="M82 316c25-85 46-143 62-174 14 34 20 93 19 176M158 318c31-105 56-171 76-199 16 50 23 113 19 201M422 319c20-81 42-139 65-174 14 47 19 104 16 176M514 320c26-102 51-165 77-190 14 48 19 112 15 190" fill="none" stroke="#17120f" stroke-width="16" stroke-linecap="round"/><path d="M166 296c30-67 81-102 148-102s118 35 148 102" fill="#160b0d"/><path d="M241 227c8-35 31-55 71-55s65 20 78 55" fill="#211014"/><path d="M272 251c15-12 30-12 45 0M342 251c15-12 30-12 45 0" stroke="#f0d36f" stroke-width="8" stroke-linecap="round"/><path d="M302 297c30 16 61 16 91 0" stroke="#490909" stroke-width="10" stroke-linecap="round"/></svg>
