<svg xmlns="http://www.w3.org/2000/svg" viewBox="0 0 640 420"><defs><linearGradient id="bg" x1="0" x2="1" y1="0" y2="1"><stop offset="0" stop-color="#ffe0ee"/><stop offset=".55" stop-color="#ffc36f"/><stop offset="1" stop-color="#8fd8ff"/></linearGradient></defs><rect width="640" height="420" fill="url(#bg)"/><circle cx="94" cy="76" r="26" fill="#fff8ce"/><circle cx="552" cy="104" r="18" fill="#fff8ce"/><path d="M0 328c92-20 181-28 268-16s178 11 271-14c38-10 72-13 101-8v130H0z" fill="#fff1f6" opacity=".82"/><ellipse cx="320" cy="232" rx="124" ry="118" fill="#ffd3ca"/><path d="M207 202c11-75 65-121 134-121 57 0 98 30 122 89-43-25-83-30-121-15-43-30-88-14-135 47z" fill="#4a2a65"/><circle cx="252" cy="244" r="28" fill="#39204c"/><circle cx="388" cy="244" r="28" fill="#39204c"/><circle cx="262" cy="234" r="8" fill="#fff"/><circle cx="398" cy="234" r="8" fill="#fff"/><circle cx="222" cy="278" r="17" fill="#ff8eb0" opacity=".72"/><circle cx="420" cy="278" r="17" fill="#ff8eb0" opacity=".72"/><path d="M282 303c25 22 51 22 76 0" stroke="#8d2c4b" stroke-width="9" stroke-linecap="round"/><path d="M129 111l10 22 24 3-17 16 4 24-21-12-21 12 4-24-17-16 24-3zM498 202l8 17 19 3-14 13 4 19-17-9-17 9 4-19-14-13 19-3z" fill="#fff8ce"/></svg>
