<svg xmlns="http://www.w3.org/2000/svg" viewBox="0 0 640 420"><defs><linearGradient id="sky" x1="0" x2="0" y1="0" y2="1"><stop offset="0" stop-color="#ffd1a1"/><stop offset=".45" stop-color="#91c8dc"/><stop offset="1" stop-color="#225d63"/></linearGradient><linearGradient id="river" x1="0" x2="1"><stop offset="0" stop-color="#b8edf2"/><stop offset=".55" stop-color="#4d9aad"/><stop offset="1" stop-color="#1c596b"/></linearGradient></defs><rect width="640" height="420" fill="url(#sky)"/><circle cx="494" cy="92" r="42" fill="#fff1b2"/><path d="M0 248 126 92l76 92 80-118 137 176 70-88 151 120v146H0z" fill="#54707b"/><path d="M0 274 141 121l83 111 72-84 131 126 75-76 138 104v118H0z" fill="#2d5962"/><path d="M0 306c70-29 141-37 212-24 69 12 138 11 207-4 81-18 155-13 221 14v128H0z" fill="#153f37"/><path d="M214 420c28-59 66-102 116-128 52-27 101-30 148-7-36 37-58 82-67 135z" fill="url(#river)"/><path d="M237 334c47-24 93-31 137-21M271 376c43-20 79-26 109-18" stroke="#e7fbff" stroke-width="5" opacity=".72" stroke-linecap="round"/><path d="M63 324l25-52 25 52h-16l20 37H59l20-37zM128 327l22-46 22 46h-14l17 32h-50l17-32zM506 323l25-53 25 53h-16l20 37h-58l20-37zM564 334l18-39 19 39h-12l15 28h-44l15-28z" fill="#0f3029"/></svg>
