<svg xmlns="http://www.w3.org/2000/svg" viewBox="0 0 640 420"><defs><linearGradient id="bg" x1="0" x2="1" y1="0" y2="1"><stop offset="0" stop-color="#ffe169"/><stop offset=".5" stop-color="#ff7a59"/><stop offset="1" stop-color="#5b1838"/></linearGradient></defs><rect width="640" height="420" fill="url(#bg)"/><path d="M69 92c78-32 149-31 214 2M382 99c71-30 132-26 183 10M88 330c102 29 197 29 286 0" stroke="#fff4b8" stroke-width="11" stroke-linecap="round" opacity=".48"/><path d="M244 98c42-35 101-36 146-2 40 30 58 83 50 144-10 78-58 131-120 131s-110-53-120-131c-8-60 10-112 44-142z" fill="#ffd5ab" stroke="#351018" stroke-width="11"/><path d="M209 173c35-71 102-98 201-80 28 20 44 52 48 96-58-31-114-42-167-33-34 6-61 12-82 17z" fill="#37192a"/><ellipse cx="276" cy="231" rx="33" ry="38" fill="#fff" stroke="#351018" stroke-width="7"/><ellipse cx="364" cy="231" rx="33" ry="38" fill="#fff" stroke="#351018" stroke-width="7"/><circle cx="286" cy="239" r="10" fill="#351018"/><circle cx="354" cy="239" r="10" fill="#351018"/><path d="M318 248c-9 24-5 38 13 43" stroke="#351018" stroke-width="8" stroke-linecap="round"/><path d="M264 305c35 32 78 32 113 0" stroke="#d62828" stroke-width="12" stroke-linecap="round"/><path d="M232 204c23-20 50-24 80-12M335 192c30-12 57-8 80 12" stroke="#351018" stroke-width="10" stroke-linecap="round"/></svg>
